
<svg width="32" height="32" viewBox="0 0 32 32" fill="none" xmlns="http://www.w3.org/2000/svg">
  <rect width="32" height="32" rx="8" fill="#4F46E5"/>
  <path d="M22 12C22 14.2091 20.2091 16 18 16C15.7909 16 14 14.2091 14 12C14 9.79086 15.7909 8 18 8C20.2091 8 22 9.79086 22 12Z" fill="white"/>
  <path d="M26 21.5C26 23.9853 22.4183 26 18 26C13.5817 26 10 23.9853 10 21.5C10 19.0147 13.5817 17 18 17C22.4183 17 26 19.0147 26 21.5Z" fill="white"/>
  <path d="M12 10C12 11.6569 10.6569 13 9 13C7.34315 13 6 11.6569 6 10C6 8.34315 7.34315 7 9 7C10.6569 7 12 8.34315 12 10Z" fill="white"/>
  <path d="M15 18.5C15 20.433 12.3137 22 9 22C5.68629 22 3 20.433 3 18.5C3 16.567 5.68629 15 9 15C12.3137 15 15 16.567 15 18.5Z" fill="white"/>
</svg>
